<svg width="43" height="43" viewBox="0 0 43 43" fill="none" xmlns="http://www.w3.org/2000/svg">
<path d="M21.5 0.25C9.76363 0.25 0.25 9.76363 0.25 21.5C0.25 33.2364 9.76363 42.75 21.5 42.75C33.2364 42.75 42.75 33.2364 42.75 21.5C42.75 9.76363 33.2364 0.25 21.5 0.25ZM30 23.625H23.625V30C23.625 31.173 22.673 32.125 21.5 32.125C20.327 32.125 19.375 31.173 19.375 30V23.625H13C11.827 23.625 10.875 22.673 10.875 21.5C10.875 20.327 11.827 19.375 13 19.375H19.375V13C19.375 11.827 20.327 10.875 21.5 10.875C22.673 10.875 23.625 11.827 23.625 13V19.375H30C31.173 19.375 32.125 20.327 32.125 21.5C32.125 22.673 31.173 23.625 30 23.625Z" fill="#BDBDBD"/>
</svg>
