<svg width="38" height="19" viewBox="0 0 38 19" fill="none" xmlns="http://www.w3.org/2000/svg">
<path d="M28.071 16.4091H9.79904C6.18955 16.4091 2.97728 13.7664 2.63187 10.1736C2.23465 6.06273 5.4642 2.59091 9.50545 2.59091H30.8515C33.1139 2.59091 35.1691 4.21455 35.3936 6.46C35.6527 9.05091 33.632 11.2273 31.0933 11.2273H12.9595C12.0096 11.2273 11.2325 10.45 11.2325 9.5C11.2325 8.55 12.0096 7.77273 12.9595 7.77273H28.071C28.7791 7.77273 29.3663 7.18545 29.3663 6.47727C29.3663 5.76909 28.7791 5.18182 28.071 5.18182H13.2013C10.9389 5.18182 8.88372 6.80545 8.6592 9.05091C8.40015 11.6418 10.4208 13.8182 12.9595 13.8182H30.7997C34.4092 13.8182 37.6215 11.1755 37.9669 7.58273C38.3641 3.45455 35.1346 0 31.0933 0H9.90266C4.94609 0 0.507624 3.62727 0.0413258 8.56727C-0.476783 14.25 3.94441 19 9.50545 19H28.071C28.7791 19 29.3663 18.4127 29.3663 17.7045C29.3663 16.9964 28.7791 16.4091 28.071 16.4091Z" fill="#151515"/>
</svg>
