<svg width="24" height="24" viewBox="0 0 24 24" fill="none" xmlns="http://www.w3.org/2000/svg">
<path d="M11.988 0C5.364 0 0 5.19484 0 11.5956C0 17.9964 5.364 23.1912 11.988 23.1912C18.624 23.1912 24 17.9964 24 11.5956C24 5.19484 18.624 0 11.988 0ZM12 20.8721C6.696 20.8721 2.4 16.7209 2.4 11.5956C2.4 6.47036 6.696 2.31912 12 2.31912C17.304 2.31912 21.6 6.47036 21.6 11.5956C21.6 16.7209 17.304 20.8721 12 20.8721ZM11.736 5.79781H11.664C11.184 5.79781 10.8 6.16887 10.8 6.63269V12.1058C10.8 12.5117 11.016 12.8943 11.388 13.103L16.368 15.9904C16.776 16.2223 17.304 16.1063 17.544 15.7121C17.796 15.3178 17.664 14.796 17.244 14.5641L12.6 11.8971V6.63269C12.6 6.16887 12.216 5.79781 11.736 5.79781Z" fill="#151515"/>
</svg>
