<svg width="19" height="25" viewBox="0 0 19 25" fill="none" xmlns="http://www.w3.org/2000/svg">
<path d="M1.35714 22.2222C1.35714 23.75 2.57857 25 4.07143 25H14.9286C16.4214 25 17.6429 23.75 17.6429 22.2222V8.33333C17.6429 6.80556 16.4214 5.55556 14.9286 5.55556H4.07143C2.57857 5.55556 1.35714 6.80556 1.35714 8.33333V22.2222ZM17.6429 1.38889H14.25L13.2864 0.402778C13.0421 0.152778 12.6893 0 12.3364 0H6.66357C6.31071 0 5.95786 0.152778 5.71357 0.402778L4.75 1.38889H1.35714C0.610714 1.38889 0 2.01389 0 2.77778C0 3.54167 0.610714 4.16667 1.35714 4.16667H17.6429C18.3893 4.16667 19 3.54167 19 2.77778C19 2.01389 18.3893 1.38889 17.6429 1.38889Z" fill="#DA5C5D"/>
</svg>
