<svg width="26" height="26" viewBox="0 0 26 26" fill="none" xmlns="http://www.w3.org/2000/svg">
<path d="M13.0002 0.25C12.221 0.25 11.5835 0.8875 11.5835 1.66667V13C11.5835 13.7792 12.221 14.4167 13.0002 14.4167C13.7794 14.4167 14.4169 13.7792 14.4169 13V1.66667C14.4169 0.8875 13.7794 0.25 13.0002 0.25ZM20.2819 4.30167C19.7294 4.85417 19.7435 5.71833 20.2677 6.27083C21.8685 7.97083 22.8602 10.2375 22.9169 12.745C23.0444 18.1708 18.5535 22.8458 13.1277 22.9025C7.58854 22.9875 3.08354 18.525 3.08354 13C3.08354 10.3933 4.08937 8.0275 5.73271 6.25667C6.25687 5.70417 6.25687 4.84 5.71854 4.30167C5.15187 3.735 4.23104 3.74917 3.69271 4.33C1.63854 6.51167 0.349373 9.41583 0.250207 12.6317C0.0518734 19.545 5.67604 25.5233 12.5894 25.7358C19.8144 25.9625 25.7502 20.1683 25.7502 12.9858C25.7502 9.62833 24.4469 6.59667 22.3219 4.33C21.7835 3.74917 20.8485 3.735 20.2819 4.30167Z" fill="white"/>
</svg>
