<svg width="15" height="25" viewBox="0 0 15 25" fill="none" xmlns="http://www.w3.org/2000/svg">
<path d="M8.225 10.9875C5.10375 10.1762 4.1 9.3375 4.1 8.03125C4.1 6.5325 5.48875 5.4875 7.8125 5.4875C9.765 5.4875 10.7413 6.23 11.0988 7.4125C11.2638 7.9625 11.7175 8.375 12.295 8.375H12.7075C13.615 8.375 14.2613 7.48125 13.945 6.62875C13.3675 5.00625 12.02 3.65875 9.875 3.13625V2.1875C9.875 1.04625 8.95375 0.125 7.8125 0.125C6.67125 0.125 5.75 1.04625 5.75 2.1875V3.095C3.0825 3.6725 0.9375 5.405 0.9375 8.05875C0.9375 11.235 3.56375 12.8162 7.4 13.7375C10.8375 14.5625 11.525 15.7725 11.525 17.0513C11.525 18 10.8512 19.5125 7.8125 19.5125C5.54375 19.5125 4.375 18.7013 3.92125 17.5462C3.715 17.01 3.2475 16.625 2.68375 16.625H2.29875C1.3775 16.625 0.73125 17.56 1.075 18.4125C1.85875 20.3237 3.6875 21.4513 5.75 21.8913V22.8125C5.75 23.9538 6.67125 24.875 7.8125 24.875C8.95375 24.875 9.875 23.9538 9.875 22.8125V21.9188C12.5562 21.41 14.6875 19.8563 14.6875 17.0375C14.6875 13.1325 11.3463 11.7987 8.225 10.9875Z" fill="#151515"/>
</svg>
