<svg width="19" height="19" viewBox="0 0 19 19" fill="none" xmlns="http://www.w3.org/2000/svg">
<path d="M17.955 13.0678C16.6567 13.0678 15.4006 12.8567 14.2289 12.4767C13.8594 12.35 13.4478 12.445 13.1628 12.73L11.5056 14.8094C8.51833 13.3844 5.72111 10.6928 4.23278 7.6L6.29111 5.84778C6.57611 5.55222 6.66056 5.14056 6.54444 4.77111C6.15389 3.59944 5.95333 2.34333 5.95333 1.045C5.95333 0.475 5.47833 0 4.90833 0H1.25611C0.686111 0 0 0.253333 0 1.045C0 10.8511 8.15944 19 17.955 19C18.7044 19 19 18.335 19 17.7544V14.1128C19 13.5428 18.525 13.0678 17.955 13.0678Z" fill="#151515"/>
</svg>
