<svg width="32" height="32" viewBox="0 0 32 32" fill="none" xmlns="http://www.w3.org/2000/svg">
<g clip-path="url(#clip0_12_77)">
<path d="M16 2.66663C8.64002 2.66663 2.66669 8.63996 2.66669 16C2.66669 23.36 8.64002 29.3333 16 29.3333C23.36 29.3333 29.3334 23.36 29.3334 16C29.3334 8.63996 23.36 2.66663 16 2.66663ZM16 6.66663C18.2134 6.66663 20 8.45329 20 10.6666C20 12.88 18.2134 14.6666 16 14.6666C13.7867 14.6666 12 12.88 12 10.6666C12 8.45329 13.7867 6.66663 16 6.66663ZM16 25.6C12.6667 25.6 9.72002 23.8933 8.00002 21.3066C8.04002 18.6533 13.3334 17.2 16 17.2C18.6534 17.2 23.96 18.6533 24 21.3066C22.28 23.8933 19.3334 25.6 16 25.6Z" fill="#151515"/>
</g>
<defs>
<clipPath id="clip0_12_77">
<rect width="32" height="32" fill="white"/>
</clipPath>
</defs>
</svg>
