<svg width="40" height="32" viewBox="0 0 40 32" fill="none" xmlns="http://www.w3.org/2000/svg">
<path d="M4.66683 0.666748C2.54891 0.666748 0.833496 2.38216 0.833496 4.50008V27.5001C0.833496 29.618 2.54891 31.3334 4.66683 31.3334H35.3335C37.4514 31.3334 39.1668 29.618 39.1668 27.5001V4.50008C39.1668 2.38216 37.4514 0.666748 35.3335 0.666748H4.66683ZM24.5784 10.2501C25.7668 10.2501 27.154 10.8453 27.154 10.8453L26.5588 13.2224C26.5588 13.2224 25.5674 12.4288 24.5784 12.4288C23.1927 12.4288 22.7965 13.0251 22.7965 13.6192C22.7965 15.005 26.7572 15.1995 26.7572 17.9729C26.7552 20.3457 23.9838 21.9307 22.2013 21.7314C20.2214 21.7314 19.2327 21.1399 19.2327 21.1399L19.6296 18.7628C19.6296 18.7628 20.8166 19.358 22.3997 19.358C23.9829 19.358 24.1816 18.7608 24.1816 18.366C24.1816 16.5835 20.221 17.1786 20.221 13.6155C20.221 11.833 21.6076 10.2501 24.5784 10.2501ZM12.1051 10.4485H14.8753L10.7163 21.5367H7.74772L5.56901 12.6272C5.56901 12.6272 7.94547 14.012 9.33122 17.3777C9.33122 17.7744 9.52962 18.3697 9.52962 18.3697L12.1051 10.4485ZM31.3092 10.4485H34.2778L36.4565 21.5367H34.0794L33.6826 19.9532H30.1188L29.5273 21.5367H26.7534L31.3092 10.4485ZM16.062 10.6431H19.0306L17.2487 21.7314H14.4785L16.062 10.6431ZM2.20361 10.6469H6.56104C7.74937 10.6469 8.14453 11.6352 8.14453 11.6352L9.13281 16.5841C7.94448 12.4268 2.20361 10.6469 2.20361 10.6469ZM32.2975 13.8139L30.714 17.9729H33.0874L32.2975 13.8139Z" fill="#151515"/>
</svg>
